<svg width="134" height="42" viewBox="0 0 134 42" fill="none" xmlns="http://www.w3.org/2000/svg">
<rect width="134" height="42" fill="#F5F5F5"/>
<g id="Dark Mode">
<path d="M-972 -1153C-972 -1154.1 -971.105 -1155 -970 -1155H4797C4798.1 -1155 4799 -1154.1 4799 -1153V1033C4799 1034.1 4798.1 1035 4797 1035H-970C-971.105 1035 -972 1034.1 -972 1033V-1153Z" fill="white"/>
<path d="M-970 -1154H4797V-1156H-970V-1154ZM4798 -1153V1033H4800V-1153H4798ZM4797 1034H-970V1036H4797V1034ZM-971 1033V-1153H-973V1033H-971ZM-970 1034C-970.552 1034 -971 1033.55 -971 1033H-973C-973 1034.66 -971.657 1036 -970 1036V1034ZM4798 1033C4798 1033.55 4797.55 1034 4797 1034V1036C4798.66 1036 4800 1034.66 4800 1033H4798ZM4797 -1154C4797.55 -1154 4798 -1153.55 4798 -1153H4800C4800 -1154.66 4798.66 -1156 4797 -1156V-1154ZM-970 -1156C-971.657 -1156 -973 -1154.66 -973 -1153H-971C-971 -1153.55 -970.552 -1154 -970 -1154V-1156Z" fill="black" fill-opacity="0.1"/>
<g id="Nova Home Sem Atividade Outro dia" clip-path="url(#clip0_1_4)">
<rect width="390" height="844" transform="translate(-24 -60)" fill="#FAF9F6"/>
<g id="Frame 38">
<g id="Frame 652" filter="url(#filter0_d_1_4)">
<rect y="66" width="342" height="210" rx="6" fill="#FAF9F6"/>
</g>
</g>
<g id="Frame 49">
<g id="Layer_1" clip-path="url(#clip1_1_4)">
<path id="Vector" fill-rule="evenodd" clip-rule="evenodd" d="M31.2458 32.4932C29.9808 34.0215 28.4712 35.4354 26.8554 36.5978V36.6001L30.108 40.8431C32.2766 39.4539 34.2141 37.7297 35.8965 35.8393C36.9393 36.3764 38.401 36.9846 40.2225 37.3279C42.9671 37.8441 45.2682 37.5209 46.6663 37.2075C46.1726 36.8873 45.0572 36.069 44.3368 34.5519C43.68 33.1702 43.6868 31.9142 43.7264 31.3278C43.2379 31.4459 42.4083 31.5806 41.4022 31.4183C40.5083 31.2739 39.8298 30.9515 39.4131 30.7129C42.6096 24.8324 43.7197 17.9128 42.3343 11.3598C40.6489 3.38622 35.9414 -0.492472 30.2232 0.716393C24.1938 1.99109 21.3355 7.90974 23.3089 17.244C24.6614 23.6407 27.4756 28.907 31.2465 32.4932H31.2458ZM36.3049 12.6315C37.3358 17.5081 36.6543 22.5829 34.642 27.0616C32.121 24.198 30.2277 20.1645 29.2515 15.5474C28.0546 9.88536 29.06 6.87742 31.2637 6.41137C33.4668 5.94533 35.3624 8.1738 36.3049 12.6315Z" fill="#4540E5"/>
<path id="Vector_2" d="M44.1383 27.2927C45.324 21.3142 50.82 17.7056 56.9541 18.9227C63.0882 20.139 66.7911 25.5737 65.6061 31.5499C64.4212 37.5262 58.8841 41.1266 52.7904 39.9185C46.6967 38.7103 42.9534 33.2675 44.1383 27.2927ZM60.3136 32.7161C62.8338 27.8089 59.5798 22.6615 54.0666 23.049C52.1081 23.1866 50.3173 24.3588 49.4061 26.0966C46.8381 31.0061 50.1781 36.1909 55.6786 35.7892C57.6356 35.647 59.4182 34.4599 60.3144 32.7146V32.7169L60.3136 32.7161Z" fill="#4540E5"/>
<path id="Vector_3" d="M85.6619 12.8687L90.2565 13.5606L89.9909 15.4966C92.084 13.6317 94.7089 13.6167 97.862 14.2189C102.218 15.0492 104.645 19.0282 103.992 23.3572L103.431 30.2887C103.276 31.3158 103.994 32.2778 105.037 32.4349L105.45 32.497L104.791 36.8709L103.479 36.6734C99.8279 36.1236 98.1717 34.0111 98.6909 30.5685L99.6289 24.3327C99.9925 21.9194 98.3079 19.0259 95.1495 18.5502C91.4377 17.9914 89.1486 20.8662 88.8681 22.7932L87.1483 34.2123L82.5537 33.5203L85.6634 12.8687H85.6612H85.6619Z" fill="#4540E5"/>
<path id="Vector_4" d="M89.9919 15.4957L90.2373 13.5657L85.6756 12.8992L84.4473 21.0755C84.4473 21.0755 85.4646 19.4612 87.3602 17.6366C89.2558 15.8121 89.9919 15.4957 89.9919 15.4957Z" fill="url(#paint0_linear_1_4)" fill-opacity="0.7"/>
<path id="Vector_5" fill-rule="evenodd" clip-rule="evenodd" d="M10.603 19.5159C4.35295 19.7141 -0.187775 24.4695 0.00597268 30.561C0.19972 36.651 5.07408 41.1064 11.283 40.9097C14.2116 40.8169 16.7782 39.709 18.6529 37.9257L18.7464 40.8685L24.0434 40.7002L23.3634 19.3162L18.0664 19.4845L18.1464 22.0114C16.1686 20.359 13.5429 19.4216 10.603 19.5151V19.5159ZM8.72312 24.186C14.0074 22.565 18.3379 26.8461 16.9899 32.1948V32.1925C16.5104 34.0948 15.042 35.6538 13.1673 36.2335C7.8995 37.8658 3.47548 33.5682 4.87061 28.2061C5.36582 26.3068 6.84698 24.7613 8.72386 24.1853L8.72312 24.186Z" fill="#4540E5"/>
<path id="Vector_6" d="M25.6685 3.10875C26.8176 2.02481 27.6778 1.49892 29.1777 1.00296C31.3508 0.284821 32.8649 0.284821 35.038 1.00296C36.5378 1.49817 37.3031 2.15422 38.4417 3.24864C39.5024 4.26749 40.5826 6.23115 40.5826 6.23115L35.0028 8.65262C35.0028 8.65262 34.1792 7.19764 33.2135 6.72263C32.5836 6.41293 32.0854 6.28725 31.3889 6.37179C30.6342 6.4638 30.2429 6.85279 29.7043 7.38915C29.0079 8.0826 28.8268 9.66998 28.8268 9.66998L23.3877 6.96799C23.3877 6.96799 24.3991 4.3049 25.6685 3.108V3.10875Z" fill="url(#paint1_radial_1_4)"/>
<path id="Vector_7" d="M41.7538 24.9446C41.1748 27.3025 39.5979 30.6283 39.378 30.7226C39.265 30.7712 37.9522 29.9685 36.7643 29.0215C35.6354 28.1216 34.6263 27.0758 34.6263 27.0758C34.6226 27.084 34.6241 27.0795 34.6263 27.0758C35.4529 25.2827 35.8412 24.3551 36.1987 22.7146L41.7538 24.9453V24.9446Z" fill="url(#paint2_linear_1_4)"/>
<path id="Vector_8" d="M33.7705 37.999L35.9002 35.8222C35.9002 35.8222 34.3787 35.0083 33.4825 34.3672C32.5587 33.7059 31.2623 32.4866 31.2623 32.4866L29.5889 34.3268L33.7705 37.999Z" fill="url(#paint3_linear_1_4)"/>
<path id="Vector_9" d="M121.556 30.5885C121.878 33.7356 119.369 36.3254 116.655 36.2596C114.25 36.2005 112.047 34.0625 111.963 31.2879L106.831 31.7271C107.114 37.6794 112.416 42.1124 118.02 41.4735C123.333 40.8676 127.411 35.878 126.848 30.2668L121.556 30.5878V30.5885Z" fill="#4540E5"/>
<path id="Vector_10" fill-rule="evenodd" clip-rule="evenodd" d="M114.943 7.92701C108.705 8.38183 104.364 13.3198 104.806 19.3978C105.25 25.472 110.303 29.727 116.499 29.2752C122.694 28.8233 127.078 23.8824 126.634 17.8059C126.492 15.8639 125.885 14.1075 124.918 12.6308L127.514 12.4416L127.129 7.15576L116.651 7.91953C116.094 7.88213 115.522 7.88362 114.942 7.92626L114.943 7.92701ZM113.254 12.6712C118.467 10.8347 122.969 14.9341 121.842 20.3343V20.3321C121.44 22.2524 120.038 23.8704 118.188 24.5265C112.992 26.3734 108.396 22.2613 109.569 16.8461C109.986 14.9281 111.403 13.3235 113.254 12.6712H113.254Z" fill="#4540E5"/>
<path id="Vector_11" d="M121.552 16.0846C120.821 13.7806 118.192 12.4707 116.629 12.2568C116.629 12.2568 117.726 11.8603 120.906 12.0503C124.086 12.2403 123.355 12.4079 124.924 12.6368C124.924 12.6368 125.461 13.5195 125.739 14.1606C126.041 14.8555 126.372 16.0846 126.372 16.0846C125.015 17.1102 122.324 18.5195 121.551 16.0846H121.552Z" fill="url(#paint4_linear_1_4)"/>
<path id="Vector_12" fill-rule="evenodd" clip-rule="evenodd" d="M61.6287 20.1691C64.4272 21.7894 66.4372 24.6814 66.797 28.1441C66.8965 29.1054 66.8629 30.0502 66.7102 30.9598C69.0001 32.3146 71.8367 32.8031 74.7826 32.156C80.8501 30.8229 84.4812 25.3067 83.1736 19.3559C81.8659 13.4051 76.2966 9.90793 70.1887 11.25C65.446 12.292 62.2204 15.846 61.6279 20.1691H61.6287ZM78.7914 22.5419C78.6687 24.4996 77.5107 26.3009 75.7752 27.215C70.8964 29.7861 65.7587 26.3727 66.1462 20.8461C66.2846 18.8884 67.4568 17.0975 69.1961 16.1871C74.0929 13.6243 79.1348 17.0377 78.7914 22.5427V22.5419Z" fill="url(#paint5_linear_1_4)"/>
</g>
</g>
</g>
</g>
<defs>
<filter id="filter0_d_1_4" x="-49.77" y="24.525" width="441.54" height="309.54" filterUnits="userSpaceOnUse" color-interpolation-filters="sRGB">
<feFlood flood-opacity="0" result="BackgroundImageFix"/>
<feColorMatrix in="SourceAlpha" type="matrix" values="0 0 0 0 0 0 0 0 0 0 0 0 0 0 0 0 0 0 127 0" result="hardAlpha"/>
<feOffset dy="8.295"/>
<feGaussianBlur stdDeviation="24.885"/>
<feColorMatrix type="matrix" values="0 0 0 0 0 0 0 0 0 0 0 0 0 0 0 0 0 0 0.1 0"/>
<feBlend mode="normal" in2="BackgroundImageFix" result="effect1_dropShadow_1_4"/>
<feBlend mode="normal" in="SourceGraphic" in2="effect1_dropShadow_1_4" result="shape"/>
</filter>
<linearGradient id="paint0_linear_1_4" x1="85.7601" y1="13.6749" x2="88.5369" y2="20.0708" gradientUnits="userSpaceOnUse">
<stop stop-color="#4540E5"/>
<stop offset="0.6" stop-color="#340EC9"/>
</linearGradient>
<radialGradient id="paint1_radial_1_4" cx="0" cy="0" r="1" gradientUnits="userSpaceOnUse" gradientTransform="translate(31.3817 4.34371) rotate(10.82) scale(4.86809)">
<stop stop-color="#340EC9"/>
<stop offset="0.6" stop-color="#381AD0"/>
<stop offset="1" stop-color="#4540E5"/>
</radialGradient>
<linearGradient id="paint2_linear_1_4" x1="38.9224" y1="24.0379" x2="37.1547" y2="29.0634" gradientUnits="userSpaceOnUse">
<stop stop-color="#4540E5" stop-opacity="0"/>
<stop offset="1" stop-color="#340EC9"/>
</linearGradient>
<linearGradient id="paint3_linear_1_4" x1="33.4077" y1="34.166" x2="31.2129" y2="37.1717" gradientUnits="userSpaceOnUse">
<stop stop-color="#340EC9"/>
<stop offset="1" stop-color="#4540E5" stop-opacity="0"/>
</linearGradient>
<linearGradient id="paint4_linear_1_4" x1="121.336" y1="11.9134" x2="121.746" y2="17.5471" gradientUnits="userSpaceOnUse">
<stop stop-color="#340EC9"/>
<stop offset="1" stop-color="#4540E5" stop-opacity="0"/>
</linearGradient>
<linearGradient id="paint5_linear_1_4" x1="71.9093" y1="22.1365" x2="66.322" y2="26.3877" gradientUnits="userSpaceOnUse">
<stop stop-color="#4540E5"/>
<stop offset="1" stop-color="#340EC9"/>
</linearGradient>
<clipPath id="clip0_1_4">
<rect width="390" height="844" fill="white" transform="translate(-24 -60)"/>
</clipPath>
<clipPath id="clip1_1_4">
<rect width="134" height="41.0715" fill="white" transform="translate(0 0.464355)"/>
</clipPath>
</defs>
</svg>
