<?xml version="1.0" encoding="UTF-8"?>
<svg xmlns="http://www.w3.org/2000/svg" xmlns:xlink="http://www.w3.org/1999/xlink" version="1.1" viewBox="0 0 1440 456">
  <defs>
    <style>
      .cls-1 {
        fill: url(#linear-gradient-5);
      }

      .cls-1, .cls-2, .cls-3, .cls-4, .cls-5 {
        fill-rule: evenodd;
      }

      .cls-2 {
        fill: url(#linear-gradient-3);
      }

      .cls-3 {
        fill: url(#linear-gradient-4);
      }

      .cls-6, .cls-5 {
        fill: #4437e8;
      }

      .cls-4 {
        fill: url(#radial-gradient);
      }

      .cls-7 {
        fill: url(#linear-gradient-2);
      }

      .cls-8 {
        fill: url(#linear-gradient);
        fill-opacity: .7;
      }
    </style>
    <linearGradient id="linear-gradient" x1="907.14" y1="150.81" x2="934.85" y2="214.61" gradientTransform="translate(0 2)" gradientUnits="userSpaceOnUse">
      <stop offset="0" stop-color="#4437e8"/>
      <stop offset=".6" stop-color="#30c"/>
    </linearGradient>
    <linearGradient id="linear-gradient-2" x1="1262.06" y1="133.23" x2="1266.16" y2="189.43" gradientTransform="translate(0 2)" gradientUnits="userSpaceOnUse">
      <stop offset="0" stop-color="#30c"/>
      <stop offset="1" stop-color="#4437e8" stop-opacity="0"/>
    </linearGradient>
    <linearGradient id="linear-gradient-3" x1="768.98" y1="235.22" x2="713.24" y2="277.63" gradientTransform="translate(0 2)" gradientUnits="userSpaceOnUse">
      <stop offset="0" stop-color="#4437e8"/>
      <stop offset="1" stop-color="#30c"/>
    </linearGradient>
    <linearGradient id="linear-gradient-4" x1="391.26" y1="103.16" x2="338.2" y2="54.73" gradientTransform="translate(0 456) scale(1 -1)" xlink:href="#linear-gradient-2"/>
    <radialGradient id="radial-gradient" cx="361.86" cy="417.8" fx="361.86" fy="417.8" r="94.32" gradientTransform="translate(0 456) scale(1 -1)" gradientUnits="userSpaceOnUse">
      <stop offset="0" stop-color="#30c"/>
      <stop offset="1" stop-color="#4437e8" stop-opacity="0"/>
    </radialGradient>
    <linearGradient id="linear-gradient-5" x1="415.56" y1="155.03" x2="437.03" y2="196.98" gradientTransform="translate(0 456) scale(1 -1)" xlink:href="#linear-gradient-2"/>
  </defs>
  <!-- Generator: Adobe Illustrator 28.7.1, SVG Export Plug-In . SVG Version: 1.2.0 Build 142)  -->
  <g>
    <g id="logos">
      <g id="logo_x5F_roxa">
        <path class="cls-5" d="M369.68,333.82c-12.62,15.25-34.03,36.06-50.15,47.66v.03l32.45,42.33c21.64-13.86,46.97-39.36,63.75-58.21,10.4,5.36,20.28,11.37,38.21,15.91,18.94,4.79,39.61,3.2,50.73-1.57-6.36-7.95-9.54-14.3-12.72-22.25-5.81-14.53-6.36-20.66-7.95-27.02-4.87,1.18-14.19.04-23.84-3.18s-16.51-7.15-20.66-9.54c31.89-58.66,39.08-122.89,25.25-188.26-16.82-79.54-54.59-112.94-111.64-100.88-60.15,12.72-81.07,66.46-61.38,159.58,13.49,63.81,40.33,109.64,77.95,145.41h0ZM413.79,142.39c10.28,48.65,3.49,99.27-16.59,143.95-25.15-28.56-44.04-68.81-53.78-114.86-11.94-56.48-1.91-86.49,20.07-91.14s40.89,17.58,50.29,62.05h0Z"/>
        <path class="cls-6" d="M491.94,288.65c11.83-59.64,66.65-95.64,127.85-83.5,61.19,12.13,98.13,66.35,86.31,125.97s-67.05,95.54-127.84,83.48c-60.79-12.05-98.13-66.35-86.31-125.95h-.01ZM653.3,342.75c25.14-48.95-7.32-100.3-62.32-96.44-19.54,1.38-37.4,13.06-46.49,30.41-25.62,48.98,7.7,100.7,62.57,96.69,19.52-1.42,37.3-13.26,46.25-30.67v.02h-.01Z"/>
        <path class="cls-6" d="M906.17,144.76l45.84,6.9-2.65,19.31c20.88-18.6,47.06-18.76,78.52-12.75,43.46,8.28,67.66,47.98,61.16,91.16l-5.6,69.14c-1.54,10.25,5.62,19.84,16.03,21.41l4.11.62-6.57,43.64-13.09-1.97c-36.42-5.48-52.94-26.56-47.77-60.9l9.36-62.21c3.63-24.08-13.18-52.94-44.68-57.68-37.03-5.58-59.86,23.1-62.66,42.33l-17.15,113.92-45.84-6.9,31.02-206.01h-.03Z"/>
        <path class="cls-8" d="M949.36,170.96l2.45-19.25-45.51-6.65-12.25,81.57s10.15-16.1,29.06-34.31c18.9-18.2,26.26-21.35,26.26-21.35h-.01Z"/>
        <path class="cls-5" d="M157.4,211.06c-62.35,1.98-107.65,49.42-105.72,110.19,1.93,60.75,50.56,105.2,112.5,103.23,29.22-.93,54.82-11.98,73.52-29.76l.93,29.36,52.84-1.68-6.78-213.32-52.84,1.68.8,25.21c-19.73-16.48-45.93-25.83-75.26-24.9h.01ZM138.64,257.66c52.71-16.17,95.92,26.53,82.47,79.9v-.02c-4.78,18.98-19.43,34.53-38.14,40.32-52.55,16.29-96.68-26.59-82.77-80.08,4.94-18.94,19.71-34.36,38.44-40.11h0Z"/>
        <path class="cls-6" d="M1264.24,321.53c3.21,31.39-21.82,57.23-48.88,56.57-23.99-.59-45.97-21.91-46.81-49.6l-51.19,4.38c2.82,59.38,55.72,103.6,111.62,97.23,53-6.04,93.69-55.82,88.07-111.79l-52.8,3.2h0Z"/>
        <path class="cls-5" d="M1198.27,95.46c-62.22,4.54-105.53,53.79-101.11,114.43,4.42,60.6,54.83,103.04,116.64,98.53s105.53-53.79,101.11-114.41c-1.41-19.38-7.48-36.9-17.12-51.62l25.9-1.89-3.84-52.73-104.52,7.62c-5.56-.37-11.26-.36-17.06.07ZM1181.42,142.78c52.01-18.32,96.93,22.58,85.68,76.44v-.02c-4,19.16-18,35.3-36.45,41.85-51.85,18.43-97.69-22.6-85.98-76.62,4.16-19.13,18.29-35.14,36.76-41.65h-.01Z"/>
        <path class="cls-7" d="M1264.21,176.84c-7.29-22.98-33.52-36.05-49.11-38.19,0,0,10.94-3.96,42.67-2.06,31.72,1.9,24.43,3.57,40.08,5.85,0,0,5.36,8.81,8.13,15.2,3.02,6.94,6.32,19.2,6.32,19.2-13.53,10.23-40.38,24.29-48.09,0Z"/>
        <path class="cls-2" d="M666.41,217.58c27.92,16.17,47.97,45.01,51.56,79.56,1,9.59.66,19.02-.86,28.09,22.84,13.51,51.14,18.39,80.53,11.94,60.53-13.3,96.75-68.33,83.71-127.69-13.04-59.36-68.6-94.25-129.53-80.86-47.31,10.39-79.49,45.85-85.4,88.98v-.02ZM837.63,241.25h0c-1.23,19.53-12.78,37.5-30.09,46.62-48.67,25.65-99.92-8.4-96.06-63.54,1.38-19.53,13.08-37.39,30.43-46.48,48.85-25.57,99.15,8.48,95.72,63.4Z"/>
        <path class="cls-3" d="M369.68,333.82c-12.62,15.25-34.03,36.06-50.15,47.66v.03l32.45,42.33c21.64-13.86,46.97-39.36,63.75-58.21,0,0-23.9-9.5-46.04-31.79v-.02Z"/>
        <path class="cls-4" d="M338.76,139.95c-2.63-36.23,7.29-55.92,24.74-59.61,19.02-4.02,35.74,12.08,45.99,45.3,1.6,5.17,50.08-17.59,46.85-27.02-19.51-57.03-54.27-80.15-103.22-69.8-46.31,9.79-69.37,43.91-68.54,101.59.25,17.23,54.86,18.93,54.18,9.54h0Z"/>
        <path class="cls-1" d="M411.55,244.85c-3.53,14.22-8.34,28.12-14.35,41.49,0,0,15.28,17.31,42.3,31.62,8.99-16.54,16.02-33.53,21.17-50.86l-49.12-22.25h0Z"/>
        <g>
          <path d="M1079.42,150.31c-.25.08-.51.24-.77.48-.25.27-.51.64-.78,1.11-.27.46-.56,1.06-.87,1.78-.4.9-.83,1.71-1.28,2.43-.46.72-.95,1.31-1.47,1.78-.51.47-1.05.8-1.65.99-.59.19-1.23.22-1.92.06-.66-.15-1.26-.45-1.78-.9-.53-.44-.95-1.02-1.27-1.71-.32-.68-.52-1.47-.6-2.36-.07-.88,0-1.84.22-2.85.24-1.09.59-2.03,1.05-2.84.46-.8.98-1.46,1.58-1.96.6-.49,1.24-.82,1.95-1s1.42-.19,2.16-.03l-.8,3.6c-.3-.07-.6-.07-.91,0-.3.07-.59.19-.87.39-.32.22-.61.54-.87.94-.25.41-.45.91-.57,1.5-.12.54-.17,1.03-.15,1.46.03.43.11.8.25,1.11.12.3.29.54.51.73.22.18.46.31.73.37.28.06.55.06.8,0s.49-.21.73-.46c.24-.22.48-.55.74-.98.25-.43.52-.99.8-1.68.41-.95.83-1.81,1.27-2.58.44-.77.92-1.39,1.44-1.9.53-.49,1.1-.84,1.72-1.04.61-.2,1.29-.22,2.03-.05.72.16,1.35.47,1.88.95.53.47.94,1.06,1.24,1.77.29.72.46,1.54.51,2.46.05.92-.04,1.9-.28,2.95-.26,1.17-.65,2.18-1.16,3.02-.51.84-1.1,1.51-1.74,2.01-.64.51-1.33.86-2.05,1.03-.73.18-1.43.19-2.1.04l.78-3.5c.51.08.96.05,1.36-.11s.74-.4,1.04-.71c.3-.3.55-.67.74-1.1s.35-.88.45-1.34c.14-.62.19-1.18.17-1.68-.02-.49-.12-.91-.28-1.24-.13-.27-.29-.48-.48-.65-.19-.16-.42-.27-.68-.33-.28-.06-.55-.05-.79.02l-.03.02Z"/>
          <path d="M1089.31,134.12c-.3-.04-.6-.09-.92-.15.16.33.31.69.42,1.08.12.39.19.8.21,1.23.04.44.03.89-.03,1.36s-.18.96-.36,1.46c-.3.81-.68,1.51-1.16,2.1-.48.59-1.02,1.04-1.6,1.36-.58.34-1.21.53-1.88.59s-1.34-.03-2.01-.27c-.86-.31-1.56-.76-2.1-1.34-.54-.58-.91-1.28-1.1-2.1-.19-.76-.22-1.62-.11-2.59s.37-2.02.78-3.15l.91-2.53-1.06-.38c-.41-.15-.8-.21-1.18-.19s-.74.12-1.08.29c-.34.19-.65.47-.93.82s-.51.79-.7,1.31c-.17.48-.26.91-.27,1.3-.01.4.04.75.16,1.05.1.3.26.55.49.76.23.21.49.36.79.47l-1.26,3.48c-.63-.24-1.18-.61-1.65-1.1-.47-.5-.84-1.11-1.08-1.83-.26-.71-.38-1.51-.35-2.4.02-.89.22-1.85.59-2.88.33-.92.76-1.74,1.27-2.45.52-.72,1.1-1.28,1.75-1.7.66-.42,1.38-.67,2.19-.75.8-.08,1.65.04,2.54.36l6.98,2.52c.71.26,1.36.44,1.96.54.6.1,1.14.13,1.62.09l.25.09-1.28,3.54c-.23.04-.49.04-.8,0h0ZM1086.37,136.11c.03-.43,0-.84-.07-1.23-.06-.39-.17-.74-.32-1.06-.15-.32-.33-.58-.53-.8l-2.9-1.05-.81,2.24c-.27.75-.44,1.43-.5,2.03s-.02,1.12.12,1.54c.12.37.31.68.56.93.26.25.59.45.97.59.32.12.64.16.95.15.32,0,.61-.1.89-.25s.53-.37.76-.66.43-.66.59-1.1c.16-.46.25-.9.28-1.33h.01Z"/>
          <path d="M1099.35,129.16c-.2.26-.4.51-.6.74l-2.33-1.77c.1-.18.22-.38.36-.61.13-.22.24-.41.31-.56.17-.32.22-.66.16-1.01-.05-.35-.15-.69-.29-1-.14-.3-.28-.56-.4-.77-.13-.21-.26-.41-.41-.62l-1.29-1.85-17.44-.98,1.87-3.61,10.97.98,1.9.33-1.28-1.44-7.26-8.27,1.87-3.63,13.22,16.33c.3.37.59.8.89,1.28.3.49.53,1.02.69,1.6.17.59.25,1.21.22,1.88-.02.66-.23,1.36-.6,2.08-.16.32-.34.61-.54.87l-.02.03Z"/>
          <path d="M1117.41,81.32c.45.55.82,1.11,1.12,1.67.36.66.62,1.33.77,2.03.16.69.18,1.38.08,2.06-.08.55-.25,1.1-.51,1.63-.26.54-.61,1.06-1.06,1.55-.46.5-.93.91-1.43,1.21-.49.3-1.01.51-1.54.62-.27.06-.55.1-.82.12-.27.02-.56.03-.85.01l1.24,1.34-2.23,2.47-17.6-15.88,2.47-2.74,6.41,5.79c-.05-.34-.07-.68-.06-1.02.02-.33.06-.67.14-1,.1-.44.27-.86.5-1.28s.54-.83.9-1.24c.48-.54.99-.97,1.54-1.28.54-.32,1.11-.54,1.69-.67.49-.11,1-.15,1.53-.11.52.04,1.05.13,1.58.28.74.22,1.47.54,2.21.98s1.46.97,2.16,1.61l.24.22c.57.52,1.08,1.05,1.52,1.6v.03ZM1112.09,81.37c-.37-.26-.73-.48-1.09-.67-.45-.21-.9-.36-1.34-.44-.44-.09-.89-.08-1.35.03-.31.07-.61.19-.9.37s-.57.43-.85.73c-.34.37-.59.76-.76,1.15-.16.39-.25.78-.26,1.17-.02.28,0,.56.06.84s.15.56.26.83l5.13,4.63c.33.1.65.16.97.18s.64,0,.96-.06c.35-.08.69-.21,1.03-.41.34-.2.67-.47.97-.82.29-.31.5-.63.64-.95.15-.33.24-.65.29-.97.05-.44,0-.88-.13-1.32-.14-.44-.35-.87-.63-1.29-.21-.32-.45-.65-.74-.98s-.6-.65-.94-.96l-.24-.22c-.35-.32-.71-.6-1.08-.86v.02Z"/>
          <path d="M1129.69,87.08c-.28.17-.56.32-.84.46l-1.49-2.52c.17-.13.35-.27.56-.43.22-.16.38-.29.5-.4.27-.23.45-.53.53-.87.08-.35.12-.69.11-1.04-.02-.34-.04-.62-.08-.86-.04-.24-.08-.48-.14-.73l-.5-2.19-15.78-7.48,3.08-2.64,9.79,5.04,1.63,1.02-.64-1.81-3.61-10.4,3.1-2.66,6.08,20.11c.13.45.25.96.34,1.53.1.56.11,1.14.04,1.74-.06.61-.23,1.22-.51,1.83-.27.61-.72,1.18-1.34,1.71-.27.24-.55.44-.83.6h0Z"/>
          <path d="M1142.1,68.35c-1.08.22-2.13.23-3.14.02-1.01-.2-1.94-.6-2.81-1.2-.87-.6-1.62-1.38-2.25-2.34l-.35-.53c-.72-1.09-1.2-2.2-1.44-3.31s-.26-2.18-.08-3.2c.19-1.02.57-1.97,1.14-2.83.57-.86,1.31-1.59,2.21-2.18,1-.66,2-1.08,3-1.24,1-.17,1.96-.13,2.87.13.93.27,1.8.73,2.62,1.4s1.56,1.5,2.22,2.49l.87,1.33-9.67,6.36.05.06c.5.55.98.97,1.44,1.25.47.28.98.47,1.54.58.57.12,1.16.11,1.75,0s1.17-.36,1.73-.73c.77-.5,1.38-1.12,1.85-1.85s.73-1.51.8-2.35l2.7.51c-.02.98-.34,2.05-.95,3.21s-1.59,2.19-2.95,3.09c-1.03.68-2.09,1.13-3.17,1.34h.02ZM1135.96,56.33c-.27.4-.45.85-.55,1.33-.09.49-.1,1.01-.02,1.57.08.55.25,1.13.51,1.72l6.56-4.32-.14-.2c-.27-.41-.61-.76-1.01-1.06-.41-.3-.85-.52-1.31-.64-.45-.12-.93-.14-1.44-.06-.51.08-1.02.29-1.53.63-.44.29-.79.64-1.06,1.04h0Z"/>
          <path d="M1182.34,43.14c.12.7.17,1.37.15,2,0,.75-.11,1.47-.32,2.14-.21.68-.52,1.29-.95,1.83-.34.44-.75.83-1.24,1.18-.48.34-1.05.62-1.68.83-.64.22-1.26.34-1.84.36s-1.13-.05-1.65-.21c-.27-.08-.52-.18-.78-.3-.25-.11-.5-.25-.75-.41l.43,1.78-3.16,1.06-7.57-22.46,3.5-1.18,2.76,8.19c.12-.32.27-.63.44-.91.18-.29.38-.56.61-.81.3-.33.65-.62,1.06-.87s.87-.46,1.39-.64c.69-.23,1.34-.35,1.97-.36.63,0,1.23.07,1.8.25.48.14.95.36,1.39.65.44.29.85.63,1.25,1.02.53.55,1.01,1.2,1.44,1.94.43.74.8,1.57,1.1,2.46l.11.31c.25.73.42,1.45.54,2.14h0ZM1177.68,40.59c-.2-.41-.41-.78-.63-1.12-.29-.4-.6-.75-.95-1.04-.34-.29-.74-.5-1.2-.63-.3-.09-.63-.13-.96-.11-.35.02-.71.1-1.1.22-.48.16-.88.37-1.22.63-.34.26-.61.56-.81.9-.15.23-.26.49-.35.76-.09.28-.14.56-.18.85l2.21,6.55c.23.25.48.46.76.63.27.18.56.32.86.42.34.11.71.15,1.1.15s.81-.09,1.25-.24c.4-.13.74-.31,1.03-.52s.53-.45.73-.71c.26-.36.43-.76.53-1.21.09-.45.12-.93.08-1.44-.02-.38-.08-.79-.16-1.21-.09-.43-.21-.86-.35-1.3l-.11-.31c-.15-.45-.32-.88-.52-1.28h-.01Z"/>
          <path d="M1190.23,54.18h-.96l-.06-2.93c.2-.03.44-.06.7-.1s.47-.07.63-.1c.36-.07.65-.23.89-.5.24-.26.44-.54.6-.85.15-.3.27-.57.36-.79.08-.22.16-.46.23-.71l.64-2.16-10.08-14.26,3.98-.79,6.05,9.2.92,1.69.33-1.89,1.96-10.83,4.01-.8-4.57,20.51c-.11.46-.26.96-.45,1.5-.19.53-.47,1.05-.82,1.54-.35.5-.79.94-1.34,1.34-.54.4-1.21.67-2.01.83-.35.07-.69.11-1.02.12v-.02Z"/>
          <path d="M1210.23,43.96c-1.05-.34-1.96-.85-2.74-1.54-.78-.67-1.4-1.48-1.86-2.43s-.73-2-.81-3.14l-.04-.63c-.09-1.3.04-2.5.38-3.58.34-1.09.84-2.03,1.51-2.82.67-.8,1.47-1.43,2.38-1.9.93-.47,1.92-.74,3-.81,1.2-.08,2.28.05,3.23.4.95.34,1.76.85,2.44,1.53.67.69,1.2,1.52,1.59,2.51s.62,2.07.7,3.26l.1,1.59-11.55.77v.08c.17.72.38,1.32.65,1.8s.62.89,1.06,1.26c.44.39.94.67,1.52.86s1.2.26,1.86.21c.91-.06,1.75-.3,2.52-.7s1.38-.95,1.85-1.65l2.1,1.78c-.5.84-1.3,1.61-2.4,2.33-1.1.71-2.46,1.12-4.08,1.23-1.23.08-2.37-.05-3.43-.39l.02-.02ZM1210.82,30.48c-.43.22-.81.52-1.14.89-.32.38-.58.83-.79,1.35-.2.52-.34,1.1-.41,1.74l7.83-.53-.02-.25c-.03-.48-.15-.96-.36-1.42-.21-.47-.48-.87-.82-1.21-.33-.33-.74-.58-1.22-.76s-1.03-.25-1.64-.21c-.52.03-1,.16-1.43.38v.02Z"/>
          <path d="M1252.72,29.97l6.17,1.18-.52,2.71-6.17-1.18-1.49,7.83c-.12.61-.14,1.13-.07,1.56.06.44.21.8.43,1.08.22.29.5.53.84.7s.73.3,1.16.38c.32.06.64.11.98.14s.67.05.99.07c.31.02.61.02.89.02s.51,0,.7-.02l-.08,2.58c-.3.11-.64.19-1.03.24-.39.05-.81.07-1.25.07s-.89-.02-1.36-.07c-.47-.04-.93-.1-1.39-.19-.83-.16-1.57-.42-2.22-.78s-1.18-.83-1.58-1.41c-.41-.57-.68-1.25-.81-2.05-.14-.8-.1-1.73.1-2.78l1.53-8.06-3.97-.76.52-2.71,3.97.76.77-4,3.63.7-.76,4h.02Z"/>
          <path d="M1263.75,37.33c.65-.87,1.41-1.57,2.28-2.08.86-.52,1.82-.84,2.86-.95s2.14.02,3.31.4,2.14.93,2.92,1.64,1.37,1.53,1.77,2.46c.39.93.59,1.94.6,3.03s-.17,2.21-.55,3.37l-.1.31c-.38,1.16-.9,2.18-1.55,3.05s-1.41,1.56-2.27,2.08-1.82.83-2.87.94c-1.05.11-2.15-.02-3.3-.4-1.16-.38-2.14-.93-2.92-1.64-.79-.71-1.37-1.53-1.76-2.46-.4-.93-.6-1.94-.62-3.03-.01-1.09.17-2.21.55-3.38l.1-.31c.38-1.15.89-2.17,1.55-3.04h0ZM1265.17,43.92c-.06.69,0,1.32.17,1.91.15.58.43,1.09.83,1.53.39.44.93.77,1.61.99.65.22,1.27.27,1.85.15.57-.12,1.1-.37,1.57-.74.47-.38.88-.86,1.24-1.44.36-.59.66-1.23.89-1.95l.1-.31c.23-.69.36-1.38.42-2.07.05-.68,0-1.32-.14-1.9-.17-.58-.45-1.1-.84-1.54-.39-.44-.92-.77-1.6-.99-.66-.22-1.29-.26-1.86-.14-.58.13-1.1.38-1.57.75-.48.37-.9.85-1.26,1.44-.36.58-.65,1.23-.88,1.92l-.11.31c-.23.71-.38,1.41-.43,2.1v-.02Z"/>
          <path d="M1291.1,68.84c-.24-.23-.47-.45-.68-.67l2-2.15c.16.12.36.26.57.41.21.16.38.28.52.37.3.2.63.28.99.26s.7-.09,1.02-.19c.32-.11.59-.22.81-.32.22-.1.44-.22.66-.35l1.96-1.1,2.67-17.26,3.41,2.2-2.05,10.82-.52,1.85,1.55-1.13,8.94-6.42,3.43,2.22-17.55,11.56c-.4.26-.85.51-1.36.76s-1.06.43-1.66.54-1.23.12-1.89.03c-.66-.09-1.34-.36-2.02-.8-.3-.2-.57-.41-.82-.63h.02Z"/>
          <path d="M1316.57,63.63c.93-.56,1.9-.92,2.9-1.07.99-.16,1.99-.09,3,.2s1.98.83,2.92,1.62c.93.79,1.63,1.66,2.08,2.61s.69,1.93.71,2.94c0,1.01-.18,2.02-.59,3.03-.4,1.01-.99,1.99-1.78,2.91l-.21.25c-.8.94-1.65,1.68-2.59,2.24-.93.56-1.89.91-2.89,1.07-.99.16-2,.09-3.01-.2-1.01-.29-1.98-.83-2.9-1.62-.94-.79-1.63-1.66-2.09-2.62s-.69-1.94-.7-2.94c-.02-1.01.17-2.03.57-3.04.4-1.01.99-1.98,1.78-2.91l.21-.25c.78-.92,1.64-1.67,2.58-2.23h.01ZM1315.4,70.27c-.31.61-.5,1.22-.56,1.82-.08.6-.01,1.18.19,1.73.2.56.57,1.06,1.11,1.52.53.44,1.08.72,1.66.83.58.11,1.16.08,1.74-.1.58-.17,1.14-.46,1.7-.87s1.07-.9,1.56-1.47l.21-.25c.47-.56.86-1.14,1.17-1.76s.5-1.22.59-1.81c.07-.6,0-1.18-.2-1.74s-.56-1.06-1.11-1.52c-.53-.45-1.09-.73-1.67-.83-.58-.1-1.16-.07-1.74.11-.59.16-1.16.45-1.71.86-.55.41-1.07.89-1.54,1.45l-.21.25c-.48.57-.88,1.16-1.19,1.78Z"/>
          <path d="M1331.72,91.14c-1,.14-1.94.08-2.84-.21-.89-.29-1.68-.8-2.36-1.55-.58-.64-1.01-1.31-1.3-2.03-.28-.71-.38-1.45-.3-2.22.08-.76.36-1.55.84-2.36s1.18-1.64,2.11-2.49l7.31-6.66,2.48,2.72-7.33,6.68c-.57.52-1.01,1-1.32,1.43-.3.43-.49.84-.55,1.23-.07.4-.03.78.13,1.15s.41.75.75,1.13c.36.39.73.71,1.1.94s.74.4,1.11.49c.32.07.64.1.96.08.33-.02.65-.08.98-.18l8.73-7.97,2.49,2.74-12.34,11.25-2.26-2.47,1.58-1.73.03.03Z"/>
          <path d="M1356.3,99.58c.26.51.43.92.52,1.25l-3.28,1.67c-.22-.53-.47-1.04-.74-1.53s-.56-.95-.87-1.4c-.35-.5-.72-.92-1.11-1.26-.39-.33-.8-.58-1.22-.74-.44-.2-.89-.3-1.37-.32s-.97.03-1.49.16l-8.43,5.93-2.12-3.02,13.65-9.6,1.99,2.83-1.81,1.46-.31.24c1.16.02,2.22.26,3.21.73.98.47,1.81,1.18,2.47,2.12.35.49.64.98.9,1.49h.01Z"/>
          <path d="M1364.54,125.57c1.09-.03,2.11.13,3.06.49.94.35,1.78.9,2.52,1.65.74.75,1.32,1.69,1.75,2.84.43,1.15.6,2.25.54,3.3-.07,1.05-.35,2.02-.83,2.92-.48.88-1.14,1.67-1.99,2.35-.84.69-1.84,1.24-2.98,1.66l-.3.11c-1.15.43-2.27.65-3.35.68-1.09.03-2.1-.13-3.05-.48-.94-.35-1.78-.9-2.52-1.65s-1.32-1.69-1.74-2.83c-.43-1.15-.6-2.25-.54-3.31.07-1.06.35-2.03.83-2.91.48-.89,1.14-1.68,1.98-2.37s1.84-1.24,2.98-1.67l.31-.11c1.14-.42,2.25-.65,3.34-.68h-.01ZM1360.26,130.79c-.57.38-1.03.82-1.39,1.31-.36.49-.58,1.02-.68,1.6-.1.59-.02,1.21.23,1.88.24.65.59,1.16,1.04,1.54.45.38.97.64,1.56.77s1.22.16,1.9.07c.68-.08,1.38-.25,2.08-.52l.31-.11c.69-.25,1.31-.57,1.88-.96s1.04-.82,1.4-1.3c.35-.49.58-1.03.68-1.61.1-.58.03-1.2-.22-1.87-.24-.65-.6-1.17-1.05-1.54-.45-.37-.98-.63-1.57-.76-.59-.14-1.22-.17-1.91-.09-.68.08-1.37.25-2.05.51l-.3.11c-.7.26-1.34.58-1.91.96h0Z"/>
          <path d="M1384.86,151.24l-20.12,4.63,1.14,4.93-2.98.69-3.15-13.7,2.98-.69,1.18,5.14,17.13-3.94-1.18-5.15,2.99-.69,2.02,8.77h-.01Z"/>
          <path d="M1375.29,163.7c1.06.2,2.01.55,2.81,1.05.8.49,1.45,1.12,1.95,1.89.49.77.79,1.67.89,2.7.09.92,0,1.74-.25,2.47-.26.72-.65,1.38-1.19,1.97l8.52-.84.36,3.67-23.59,2.31-.33-3.33,1.72-.34c-.71-.47-1.27-1.06-1.7-1.76-.42-.7-.69-1.53-.78-2.5-.1-1.01.02-1.94.37-2.8.35-.85.87-1.59,1.57-2.23.69-.64,1.54-1.16,2.54-1.57s2.09-.67,3.29-.79l.32-.03c1.26-.12,2.43-.09,3.49.11v.02ZM1369.77,167.7c-.64.21-1.19.49-1.64.84-.47.36-.82.79-1.06,1.3-.23.51-.32,1.1-.26,1.78.09.83.33,1.5.75,2,.42.51.95.9,1.61,1.16l7.14-.7c.58-.39,1.03-.87,1.34-1.44.31-.57.42-1.27.34-2.09-.06-.69-.27-1.26-.6-1.72-.34-.46-.76-.81-1.3-1.06-.53-.27-1.14-.44-1.81-.52s-1.38-.08-2.13,0l-.32.03c-.74.07-1.43.21-2.07.42h.01Z"/>
          <path d="M1378.47,208.13c.23.31.43.62.58.95.26.51.44,1.06.53,1.64.09.58.09,1.18-.01,1.8-.14.86-.39,1.63-.76,2.31-.37.67-.87,1.23-1.48,1.65-.62.42-1.37.71-2.25.85s-1.91.12-3.07-.06l-10.15-1.62.58-3.64,10.18,1.62c.61.1,1.16.11,1.64.04.48-.08.88-.23,1.22-.47.35-.25.63-.57.85-.96.22-.4.37-.87.46-1.42.07-.43.08-.84.04-1.24-.04-.39-.13-.77-.27-1.11-.11-.29-.26-.56-.43-.83s-.38-.5-.62-.71l-11.93-1.9.58-3.64,23.41,3.73-.58,3.64-9.27-1.48c.29.26.56.55.79.86h-.04Z"/>
          <path d="M1358.78,229.53c.3.02.61.05.93.09-.19-.33-.35-.67-.49-1.05s-.24-.79-.29-1.22c-.06-.44-.08-.89-.05-1.36.03-.47.12-.97.27-1.48.24-.83.58-1.55,1.03-2.17.44-.62.95-1.1,1.52-1.46.56-.37,1.17-.61,1.83-.7.66-.1,1.34-.05,2.02.15.88.26,1.6.66,2.18,1.21s.98,1.22,1.23,2.03c.24.74.33,1.6.27,2.58-.05.98-.25,2.05-.58,3.2l-.76,2.58,1.08.32c.42.12.81.16,1.19.12.38-.05.73-.16,1.06-.36.33-.21.62-.51.88-.88.25-.37.46-.83.61-1.36.14-.48.21-.92.19-1.32-.01-.4-.09-.74-.22-1.04-.12-.29-.3-.53-.54-.73-.24-.19-.5-.34-.82-.42l1.05-3.55c.64.2,1.21.53,1.72,1,.5.47.9,1.06,1.19,1.76.3.69.47,1.48.5,2.37.03.9-.1,1.86-.41,2.91-.28.94-.65,1.78-1.12,2.52-.48.75-1.02,1.35-1.65,1.81-.62.46-1.33.75-2.13.88-.79.13-1.65.06-2.55-.2l-7.12-2.09c-.72-.21-1.39-.35-2-.41-.61-.07-1.15-.06-1.62,0l-.25-.07,1.06-3.61c.23-.05.5-.07.8-.05h-.01ZM1361.6,227.37c0,.44.05.84.14,1.23.09.38.22.72.38,1.03.17.31.37.56.58.77l2.96.87.66-2.28c.23-.77.35-1.46.38-2.06s-.05-1.11-.22-1.53c-.15-.36-.35-.66-.62-.9s-.61-.41-1-.53c-.32-.1-.65-.13-.96-.09-.32.03-.61.14-.87.31s-.5.4-.71.71-.38.68-.52,1.14-.2.91-.2,1.34h0Z"/>
          <path d="M1355.21,252.52c-.6-.39-1.12-.8-1.58-1.23-.55-.51-1.01-1.07-1.37-1.68-.36-.61-.6-1.26-.72-1.93-.09-.55-.11-1.12-.03-1.71s.25-1.19.52-1.81.6-1.15.97-1.59c.38-.44.8-.8,1.27-1.08.24-.14.49-.26.74-.37.26-.11.52-.2.81-.28l-1.6-.89,1.34-3.05,21.7,9.54-1.49,3.38-7.91-3.48c.16.31.29.62.38.94.1.32.16.65.19.99.04.45.02.9-.08,1.38-.09.47-.24.96-.46,1.46-.29.66-.64,1.22-1.06,1.7-.41.47-.88.86-1.4,1.16-.43.26-.9.45-1.41.58s-1.04.21-1.59.24c-.76.02-1.57-.06-2.4-.24-.84-.19-1.7-.47-2.56-.85l-.3-.13c-.71-.31-1.36-.66-1.95-1.04h0ZM1360.24,250.8c.44.13.85.23,1.25.29.49.06.96.06,1.4,0,.45-.05.87-.21,1.27-.46.27-.16.52-.37.74-.64s.41-.59.57-.96c.21-.46.32-.91.36-1.33.03-.42,0-.82-.12-1.2-.08-.27-.18-.53-.32-.78-.15-.25-.32-.48-.51-.7l-6.33-2.78c-.34,0-.67.05-.98.14-.31.08-.6.2-.89.36-.31.18-.59.42-.85.72-.26.29-.48.66-.67,1.08-.17.39-.27.76-.31,1.11s-.03.69.03,1.01c.09.43.27.84.54,1.2.27.37.6.71,1.01,1.03.3.24.63.48,1.01.69.38.22.77.43,1.2.61l.29.13c.43.19.87.35,1.3.48h0Z"/>
          <path d="M1357.3,270.35l-11.68-7.04-2.53,4.2-2.62-1.57,7.11-11.79,2.61,1.58-2.65,4.4,9.05,5.46,2.65-4.4,2.63,1.59-4.57,7.58h0ZM1363.72,269.66c.16.22.27.46.33.73.05.25.06.51,0,.78-.05.28-.16.55-.33.83-.29.48-.64.79-1.06.94s-.83.13-1.24-.05c-.42-.17-.72-.44-.89-.81s-.19-.76-.06-1.2c-.06-.28-.04-.57.07-.86.1-.29.29-.56.57-.81.29-.26.61-.39.96-.4.35-.01.69.08,1.02.28.25.15.47.34.63.55v.02Z"/>
          <path d="M1346.85,285.06l-3.91,4.92-2.16-1.72,3.91-4.92-6.24-4.96c-.49-.38-.94-.65-1.36-.79s-.8-.18-1.15-.12c-.36.06-.7.19-1.01.42s-.6.51-.88.86c-.2.25-.39.52-.58.8s-.36.57-.52.85c-.16.27-.3.53-.43.78s-.23.46-.32.63l-2.24-1.27c.04-.31.13-.65.27-1.02s.32-.74.52-1.14c.21-.39.43-.78.69-1.18.26-.4.53-.77.82-1.14.52-.66,1.09-1.19,1.71-1.6s1.28-.65,1.98-.74c.69-.1,1.42-.02,2.2.24.77.25,1.58.71,2.41,1.38l6.43,5.1,2.51-3.16,2.16,1.72-2.51,3.16,3.19,2.54-2.3,2.9-3.19-2.53h0Z"/>
          <path d="M1322.8,294.27c.25.07.56.08.91.02.36-.09.78-.26,1.26-.5s1.05-.58,1.71-1.01c.83-.53,1.63-.97,2.4-1.32s1.51-.58,2.21-.68c.68-.11,1.32-.09,1.92.07.61.16,1.15.5,1.64,1.01.47.48.8,1.06,1,1.73.19.67.23,1.38.12,2.13-.1.75-.37,1.51-.8,2.29-.42.78-1.01,1.54-1.75,2.26-.8.77-1.61,1.37-2.43,1.79-.83.42-1.63.68-2.4.77-.76.08-1.49,0-2.18-.23-.68-.24-1.29-.63-1.81-1.16l2.65-2.57c.22.22.47.39.76.51.29.11.6.16.94.15.39,0,.81-.11,1.25-.31.43-.2.87-.51,1.3-.93.4-.39.71-.77.92-1.14.22-.38.35-.73.4-1.06.07-.32.05-.62-.03-.89-.08-.28-.21-.51-.41-.71-.21-.2-.43-.35-.67-.44s-.52-.09-.86-.02c-.32.05-.7.19-1.16.41-.45.22-.98.54-1.59.97-.86.58-1.68,1.06-2.47,1.46-.79.39-1.54.66-2.24.79-.71.12-1.38.09-2.01-.07-.63-.17-1.2-.52-1.73-1.07-.51-.53-.86-1.14-1.05-1.82-.18-.68-.2-1.4-.06-2.16.15-.76.46-1.54.92-2.33.46-.79,1.08-1.57,1.86-2.32.86-.84,1.74-1.47,2.63-1.89s1.74-.66,2.56-.72c.82-.08,1.58.01,2.28.26.71.25,1.29.62,1.78,1.12l-2.57,2.49c-.38-.35-.78-.56-1.2-.65s-.84-.08-1.25.03c-.42.09-.83.26-1.23.51s-.77.55-1.11.87c-.46.44-.81.88-1.06,1.31s-.4.83-.45,1.19c-.04.3-.03.57.04.81.07.24.2.46.38.65.2.21.42.35.67.42v-.02Z"/>
        </g>
      </g>
    </g>
  </g>
</svg>